<?xml version="1.0" encoding="UTF-8"?>
<svg width="74.191mm" height="71.72mm" version="1.1" viewBox="0 0 74.191 71.72" xmlns="http://www.w3.org/2000/svg">
<g transform="translate(-19.681 -79.607)">
<path d="m55.058 134.16c0-0.0549 0.20836-0.2633 0.46302-0.46302 0.41964-0.3291 0.429-0.31975 0.0999 0.0999-0.34564 0.44073-0.56292 0.58089-0.56292 0.36312zm1.8521-1.8521c0-0.0549 0.20836-0.2633 0.46302-0.46302 0.41964-0.32911 0.429-0.31975 0.0999 0.0999-0.34564 0.44073-0.56292 0.58088-0.56292 0.36312zm12.192-0.58361c0.0127-0.30823 0.07539-0.37092 0.15985-0.15985 0.07643 0.19099 0.06703 0.4192-0.02088 0.50712-0.08792 0.0879-0.15045-0.0684-0.13896-0.34727zm-2.8699-2.2269c0-0.50932 0.05445-0.71768 0.121-0.46302 0.06655 0.25466 0.06655 0.67138 0 0.92604s-0.121 0.0463-0.121-0.46302zm-20.748-2.0328c0.191-0.0764 0.4192-0.067 0.50712 0.0209 0.08792 0.0879-0.06835 0.15046-0.34727 0.13897-0.30822-0.0127-0.37092-0.0754-0.15985-0.15985zm1.0583-3.175c0.191-0.0764 0.4192-0.067 0.50712 0.0209 0.08792 0.0879-0.06835 0.15046-0.34727 0.13897-0.30823-0.0127-0.37092-0.0754-0.15985-0.15985zm28.996-7.8229-0.50403-0.59531 0.59531 0.50403c0.55945 0.47366 0.71576 0.68659 0.50403 0.68659-0.05021 0-0.3181-0.26789-0.59531-0.59531zm-2.5222-2.249c-0.32911-0.41964-0.31975-0.429 0.0999-0.0999 0.25466 0.19972 0.46302 0.40808 0.46302 0.46302 0 0.21776-0.21727 0.0776-0.56292-0.36313zm-24.678-4.7891c-1.8606-8.1806-0.68358-16.73 3.3701-24.477 2.2867-4.3704 4.1823-6.006 5.9133-5.1021 1.8932 0.98865 3.3089 3.4941 4.6905 8.3009 1.3537 4.7097 1.4832 4.1648-1.5689 6.6025-5.457 4.3585-9.1905 9.1587-11.126 14.305l-0.8492 2.2575zm-10.247 0.82036c-0.32911-0.41964-0.31975-0.429 0.09989-0.0999 0.25466 0.19972 0.46302 0.40808 0.46302 0.46302 0 0.21776-0.21727 0.0776-0.56292-0.36313zm6.1401-5.5122c0.01269-0.30822 0.07539-0.37092 0.15985-0.15985 0.07643 0.19099 0.06703 0.4192-0.02089 0.50712-0.08792 0.0879-0.15045-0.0684-0.13896-0.34727zm23.477-1.3493c0.191-0.0764 0.4192-0.067 0.50712 0.0209 0.08792 0.0879-0.06835 0.15045-0.34727 0.13897-0.30823-0.0127-0.37092-0.0754-0.15985-0.15986zm-23.477-3.9424c0.01269-0.30822 0.07539-0.37092 0.15985-0.15985 0.07643 0.191 0.06703 0.4192-0.02089 0.50712-0.08792 0.0879-0.15045-0.0684-0.13896-0.34727zm39.423-7.4083c0.0127-0.30822 0.0754-0.37092 0.15985-0.15985 0.0764 0.191 0.067 0.4192-0.0209 0.50712-0.0879 0.08792-0.15046-0.06835-0.13897-0.34726zm-51.279-2.6748c0.25743-0.06708 0.61462-0.06267 0.79375 0.0098 0.17913 0.07248-0.03149 0.12736-0.46806 0.12197-0.43656-0.0054-0.58312-0.06469-0.32569-0.13177z"/>
<path d="m50.295 134.16c0-0.0549 0.20836-0.2633 0.46302-0.46302 0.41964-0.3291 0.429-0.31975 0.0999 0.0999-0.34564 0.44073-0.56292 0.58089-0.56292 0.36312zm4.7625-4.5303c0.34178-0.3638 0.68094-0.66146 0.7537-0.66146 0.07276 0-0.14734 0.29766-0.48912 0.66146-0.34178 0.3638-0.68094 0.66146-0.7537 0.66146s0.14734-0.29766 0.48912-0.66146zm-8.7809-2.1651c0.191-0.0764 0.4192-0.067 0.50712 0.0209 0.08792 0.0879-0.06835 0.15046-0.34726 0.13897-0.30823-0.0127-0.37092-0.0754-0.15985-0.15985zm-8.1525-3.178c-4.1007-0.43864-8.4332-1.7663-12.909-3.9558-5.1532-2.5209-6.3949-4.0439-5.0068-6.1414 1.1127-1.6813 5.3326-3.5207 10.737-4.68l2.2143-0.47499 0.93557 1.1696c0.51456 0.64325 2.2566 2.4837 3.8712 4.0898 4.1216 4.1001 8.4125 6.883 12.659 8.2102 0.83674 0.26152 1.5214 0.55386 1.5214 0.64965 0 0.21176-2.1225 0.69066-4.6302 1.0447-1.7579 0.2482-7.4017 0.30121-9.3927 0.0882zm41.079-3.8512c-1.7015-2.2433-5.7052-6.0801-8.2024-7.8605-2.7455-1.9575-5.3295-3.3143-7.8732-4.1342-1.069-0.34456-1.6843-0.66013-1.4552-0.74634 1.3767-0.51809 4.8667-1.0203 7.9375-1.1422 7.0396-0.2794 13.214 1.1472 19.891 4.5952 2.8047 1.4486 3.7318 2.1708 4.1822 3.2583 0.68708 1.6587-0.49483 3.1703-3.6524 4.671-1.6645 0.79111-8.3722 2.7478-9.4197 2.7478-0.19454 0-0.82782-0.62507-1.4073-1.3891zm-4.3354-0.13229c-0.32911-0.41965-0.31975-0.429 0.0999-0.0999 0.25466 0.19972 0.46302 0.40808 0.46302 0.46302 0 0.21777-0.21727 0.0776-0.56292-0.36312zm-1.9758-1.9844-0.50403-0.59531 0.59531 0.50403c0.55944 0.47366 0.71576 0.6866 0.50403 0.6866-0.05021 0-0.3181-0.26789-0.59531-0.59532zm-33.058-6.35-1.313-1.3891 1.3891 1.313c0.76398 0.72214 1.3891 1.3472 1.3891 1.3891 0 0.19742-0.24512-0.0222-1.4652-1.313zm27.08-8.5813c0.191-0.0764 0.4192-0.067 0.50712 0.0209 0.08792 0.0879-0.06835 0.15045-0.34727 0.13897-0.30823-0.0127-0.37092-0.0754-0.15985-0.15986zm-10.269-0.18373c0-0.055 0.20836-0.26331 0.46302-0.46303 0.41964-0.3291 0.429-0.31974 0.0999 0.0999-0.34564 0.44073-0.56292 0.58089-0.56292 0.36313zm1.5875-1.8521c0-0.0549 0.20836-0.2633 0.46302-0.46302 0.41964-0.32911 0.429-0.31975 0.0999 0.0999-0.34564 0.44073-0.56292 0.58088-0.56292 0.36312zm2.6458-2.6782c0.34178-0.3638 0.68094-0.66146 0.7537-0.66146 0.07276 0-0.14734 0.29766-0.48912 0.66146-0.34178 0.3638-0.68094 0.66146-0.7537 0.66146s0.14734-0.29766 0.48912-0.66146z"/>
<path d="m31.371 141.3c-0.87847-0.38275-1.4488-1.369-1.4488-2.5055 0-1.9049 1.6308-5.6504 4.1479-9.5266l1.4384-2.215 0.97715 0.17293c2.2168 0.39232 8.7539 0.48955 11.316 0.16831 3.5016-0.43896 7.2391-1.43 9.5031-2.5197 1.0179-0.48995 1.8734-0.8681 1.9012-0.84033 0.02776 0.0278-0.56693 0.95203-1.3215 2.0539-5.0684 7.4011-12.816 12.671-22.12 15.047-2.4183 0.61745-3.2813 0.64993-4.3936 0.16532zm46.702-0.30033c-1.4574-0.44936-5.6555-2.5703-7.7633-3.9221-1.4642-0.93904-1.5405-1.04-1.3906-1.8389 0.08727-0.46494 0.23561-2.5854 0.32964-4.7122 0.27411-6.1995-0.60345-11.189-2.7002-15.353-0.51768-1.028-0.89211-1.9182-0.83206-1.9782 0.20565-0.20565 4.2892 2.6102 6.2748 4.3268 5.1186 4.4253 8.6215 9.802 10.855 16.661 1.308 4.0176 1.3659 5.36 0.27816 6.4478-0.6841 0.6841-0.95142 0.77127-2.3151 0.75497-0.84794-0.0101-2.0791-0.18413-2.736-0.38666zm-32.824-24.773c-1.5894-1.0387-3.5587-2.694-5.4298-4.5641-4.0114-4.0091-6.5377-7.8809-8.393-12.863-1.9551-5.2504-2.1474-7.3104-0.80748-8.6503 0.60111-0.60111 0.8206-0.65092 2.4299-0.55146 2.1898 0.13535 5.2123 1.319 9.0064 3.5272l2.716 1.5807-0.15383 1.0583c-0.0846 0.58208-0.2273 2.6672-0.3171 4.6336-0.27525 6.0272 0.57469 10.909 2.6366 15.144 0.61994 1.2733 1.0549 2.3151 0.96667 2.3151-0.08827 0-1.2827-0.7334-2.6543-1.6298zm9.2801-9.4348c0-0.35832 1.8924-3.0824 3.2498-4.6781 5.0542-5.9415 12.118-10.282 20.012-12.298 2.6196-0.66885 3.6302-0.67158 4.7108-0.01272 1.9809 1.2078 1.4056 4.3887-1.7959 9.9291-2.267 3.9232-2.4242 4.1207-3.1579 3.9679-0.3638-0.0758-2.5671-0.21252-4.8962-0.3039-6.7221-0.26373-11.736 0.53678-15.94 2.5449-1.2005 0.57351-2.1828 0.95622-2.1828 0.85046z"/>
<path d="m55.97 151.2c-0.87331-0.35843-2.2619-2.1178-3.059-3.8756-0.8599-1.8965-2.2335-6.3866-2.4687-8.0699l-0.16281-1.1652 1.3623-0.91427c2.112-1.4174 6.4274-5.6611 8.3214-8.1831 1.9784-2.6344 3.358-5.1443 4.2003-7.6411l0.59304-1.7581 0.42639 1.7076c1.9026 7.6197 0.88868 16.364-2.7343 23.581-1.4785 2.9452-2.9397 5.2443-3.6536 5.7487-0.86556 0.61157-2.1112 0.86287-2.825 0.5699z"/>
</g>
</svg>
